#!OML:ASF \\Waltz\H\Terrain\Patient Classification 1\Animal2\Wednesday\Animal2.ASF
:FULLY-SPECIFIED
:DEGREES
4378
root 20.5661 19.9671 -9.95945 725.024 -57.6747 -720.907
lowerback 3.27735 -3.6435 3.30038
upperback -3.82155 -4.62828 1.55427
thorax -5.94051 -2.40765 0.169011
lowerneck -3.87472 2.46341 13.7276
upperneck 5.2163 3.3964 -16.5191
head 2.68932 1.4485 -7.26624
rclavicle -3.39176e-015 -1.07344e-014
rhumerus -66.1803 45.1382 -106.728
rradius 51.7394
rwrist 27.6804
rhand 13.3837 31.1956
rfingers 7.12502
rthumb 38.3281 5.48645
lclavicle -3.39176e-015 -1.07344e-014
lhumerus -83.4993 -41.9381 128.461
lradius 56.0571
lwrist -7.67012
lhand -12.6882 14.2933
lfingers 7.12502
lthumb 13.3937 43.8427
rfemur -15.9128 -14.7443 22.6028
rtibia 28.9479
rfoot 2.46054 -20.3602
rtoes 45.9996
lfemur -12.5075 13.6941 -20.0978
ltibia 30.0129
lfoot 3.73242 15.0026
ltoes -34.3638
4379
root 20.5718 19.9696 -9.94269 724.84 -59.5453 -720.816
lowerback 3.46679 -3.56371 3.3706
upperback -3.83162 -4.51225 1.47866
thorax -6.06868 -2.35544 0.0557061
lowerneck -3.43384 2.69528 13.5893
upperneck 4.93059 3.73328 -16.3978
head 2.57993 1.63703 -7.18775
rclavicle 1.05729e-014 2.78299e-015
rhumerus -66.1138 45.6316 -106.928
rradius 51.9476
rwrist 27.6448
rhand 13.3349 31.5219
rfingers 7.12502
rthumb 38.2821 5.8
lclavicle 1.05729e-014 2.78299e-015
lhumerus -84.8742 -41.9115 129.035
lradius 57.0513
lwrist -7.4692
lhand -14.5763 14.045
lfingers 7.12502
lthumb 11.5734 43.7054
rfemur -15.9383 -15.1822 22.5054
rtibia 29.5275
rfoot 3.15465 -21.0936
rtoes 45.7106
lfemur -12.5204 13.5911 -20.1648
ltibia 29.6347
lfoot 4.39645 15.0507
ltoes -36.6393
4380
root 20.5787 19.9661 -9.92659 724.771 -61.314 -720.871
lowerback 3.75745 -3.46436 3.47969
upperback -3.88657 -4.35851 1.47499
thorax -6.29838 -2.28593 0.000174281
lowerneck -3.11527 2.89866 13.5032
upperneck 4.77555 4.03793 -16.5064
head 2.52919 1.79663 -7.1966
rclavicle 1.20886e-014 -1.11319e-014
rhumerus -66.1038 46.0761 -106.986
rradius 52.1165
rwrist 27.5767
rhand 13.4121 31.6672
rfingers 7.12502
rthumb 38.3549 5.96548
lclavicle 1.20886e-014 -1.11319e-014
lhumerus -86.6385 -41.9895 130.267
lradius 58.1286
lwrist -6.61687
lhand -15.7076 14.1237
lfingers 7.12502
lthumb 10.4822 43.8423
rfemur -15.9228 -15.3098 22.4251
rtibia 30.0436
rfoot 3.92456 -21.7185
rtoes 45.3897
lfemur -12.5743 13.1736 -20.0272
ltibia 29.3289
lfoot 2.16917 16.1624
ltoes -27.6879
4381
root 20.5858 19.9528 -9.91032 724.904 -62.9703 -721.051
lowerback 3.9735 -3.3574 3.70682
upperback -3.98069 -4.19369 1.37838
thorax -6.54277 -2.21995 -0.222571
lowerneck -2.88685 3.07586 13.745
upperneck 4.77776 4.30052 -16.6499
head 2.54048 1.93637 -7.27653
rclavicle -3.98066e-014 4.37326e-015
rhumerus -66.0074 46.2382 -107.093
rradius 52.2513
rwrist 27.5638
rhand 13.435 31.5391
rfingers 7.12502
rthumb 38.3766 5.84335
lclavicle -3.98066e-014 4.37326e-015
lhumerus -88.2953 -41.9892 131.167
lradius 59.2597
lwrist -5.9904
lhand -15.7404 13.8993
lfingers 7.12502
lthumb 10.4506 43.6196
rfemur -16.0515 -15.3615 22.4591
rtibia 30.5426
rfoot 4.40147 -21.9224
rtoes 45.1978
lfemur -12.7252 12.3029 -19.8062
ltibia 29.1093
lfoot -1.60914 16.9922
ltoes -8.80867
4382
root 20.5934 19.9237 -9.89374 725.097 -64.6034 -721.125
lowerback 4.00241 -3.21261 3.96585
upperback -4.05845 -3.98961 1.19816
thorax -6.66744 -2.13851 -0.568439
lowerneck -2.88877 3.27108 14.0743
upperneck 4.95112 4.57406 -16.7222
head 2.64371 2.07441 -7.34575
rclavicle -1.86858e-014 -1.35174e-014
rhumerus -65.6338 46.1906 -107.022
rradius 52.4319
rwrist 27.6435
rhand 13.1987 31.3918
rfingers 7.12502
rthumb 38.1535 5.63454
lclavicle -1.86858e-014 -1.35174e-014
lhumerus -89.4427 -42.0481 131.48
lradius 59.9831
lwrist -6.5029
lhand -16.2092 12.8421
lfingers 7.12502
lthumb 9.9983 42.5846
rfemur -16.3434 -15.5722 22.4902
rtibia 31.0393
rfoot 4.81449 -21.8064
rtoes 45.1289
lfemur -13.1269 11.9279 -19.8318
ltibia 28.9943
lfoot -1.00463 17.1504
ltoes -12.8319
